HIERARCHY
ROOT hip
{
  OFFSET 0 0 0
  CHANNELS 6 Xposition Yposition Zposition Zrotation Yrotation Xrotation
  JOINT abdomen
  {
    OFFSET 0 20.6881 -0.73152
    CHANNELS 3 Zrotation Xrotation Yrotation
    JOINT chest
    {
      OFFSET 0 11.7043 -0.48768
      CHANNELS 3 Zrotation Xrotation Yrotation
      JOINT neck
      {
        OFFSET 0 22.1894 -2.19456
        CHANNELS 3 Zrotation Xrotation Yrotation
        JOINT head
        {
          OFFSET -0.24384 7.07133 1.2192
          CHANNELS 3 Zrotation Xrotation Yrotation
          JOINT leftEye
          {
            OFFSET 4.14528 8.04674 8.04672
            CHANNELS 3 Zrotation Xrotation Yrotation
            End Site
            {
              OFFSET 1 0 0
            }
          }
          JOINT rightEye
          {
            OFFSET -3.6576 8.04674 8.04672
            CHANNELS 3 Zrotation Xrotation Yrotation
            End Site
            {
              OFFSET 1 0 0
            }
          }
        }
      }
      JOINT rCollar
      {
        OFFSET -2.68224 19.2634 -4.8768
        CHANNELS 3 Zrotation Xrotation Yrotation
        JOINT rShldr
        {
          OFFSET -8.77824 -1.95073 1.46304
          CHANNELS 3 Zrotation Xrotation Yrotation
          JOINT rForeArm
          {
            OFFSET -28.1742 -1.7115 0.48768
            CHANNELS 3 Zrotation Xrotation Yrotation
            JOINT rHand
            {
              OFFSET -22.5879 0.773209 7.07136
              CHANNELS 3 Zrotation Xrotation Yrotation
              JOINT rThumb1
              {
                OFFSET -1.2192 -0.487915 3.41376
                CHANNELS 3 Zrotation Xrotation Yrotation
                JOINT rThumb2
                {
                  OFFSET -3.37035 -0.52449 3.41376
                  CHANNELS 3 Zrotation Xrotation Yrotation
                  End Site
                  {
                    OFFSET -1.78271 -1.18214 1.43049
                  }
                }
              }
              JOINT rIndex1
              {
                OFFSET -7.75947 0.938293 5.60832
                CHANNELS 3 Zrotation Xrotation Yrotation
                JOINT rIndex2
                {
                  OFFSET -2.54057 -0.884171 1.56538
                  CHANNELS 3 Zrotation Xrotation Yrotation
                  End Site
                  {
                    OFFSET -1.62519 -0.234802 1.16502
                  }
                }
              }
              JOINT rMid1
              {
                OFFSET -8.24714 1.18213 3.41376
                CHANNELS 3 Zrotation Xrotation Yrotation
                JOINT rMid2
                {
                  OFFSET -3.10165 -0.590103 1.0647
                  CHANNELS 3 Zrotation Xrotation Yrotation
                  End Site
                  {
                    OFFSET -2.48547 -0.328903 0.83742
                  }
                }
              }
              JOINT rRing1
              {
                OFFSET -8.82822 0.546677 1.51678
                CHANNELS 3 Zrotation Xrotation Yrotation
                JOINT rRing2
                {
                  OFFSET -2.60934 -0.819778 -0.0198488
                  CHANNELS 3 Zrotation Xrotation Yrotation
                  End Site
                  {
                    OFFSET -2.33842 -0.294052 0.168128
                  }
                }
              }
              JOINT rPinky1
              {
                OFFSET -8.27202 -0.0477905 -0.4584
                CHANNELS 3 Zrotation Xrotation Yrotation
                JOINT rPinky2
                {
                  OFFSET -1.82734 -0.647385 -0.700984
                  CHANNELS 3 Zrotation Xrotation Yrotation
                  End Site
                  {
                    OFFSET -1.69225 -0.51767 -0.607171
                  }
                }
              }
            }
          }
        }
      }
      JOINT lCollar
      {
        OFFSET 2.68224 19.2634 -4.8768
        CHANNELS 3 Zrotation Xrotation Yrotation
        JOINT lShldr
        {
          OFFSET 8.77824 -1.95073 1.46304
          CHANNELS 3 Zrotation Xrotation Yrotation
          JOINT lForeArm
          {
            OFFSET 28.1742 -1.7115 0.48768
            CHANNELS 3 Zrotation Xrotation Yrotation
            JOINT lHand
            {
              OFFSET 22.5879 0.773209 7.07136
              CHANNELS 3 Zrotation Xrotation Yrotation
              JOINT lThumb1
              {
                OFFSET 1.2192 -0.487915 3.41376
                CHANNELS 3 Zrotation Xrotation Yrotation
                JOINT lThumb2
                {
                  OFFSET 3.37035 -0.52449 3.41376
                  CHANNELS 3 Zrotation Xrotation Yrotation
                  End Site
                  {
                    OFFSET 1.78271 -1.18214 1.43049
                  }
                }
              }
              JOINT lIndex1
              {
                OFFSET 7.75947 0.938293 5.60832
                CHANNELS 3 Zrotation Xrotation Yrotation
                JOINT lIndex2
                {
                  OFFSET 2.54057 -0.884171 1.56538
                  CHANNELS 3 Zrotation Xrotation Yrotation
                  End Site
                  {
                    OFFSET 1.62519 -0.234802 1.16502
                  }
                }
              }
              JOINT lMid1
              {
                OFFSET 8.24714 1.18213 3.41376
                CHANNELS 3 Zrotation Xrotation Yrotation
                JOINT lMid2
                {
                  OFFSET 3.10165 -0.590103 1.0647
                  CHANNELS 3 Zrotation Xrotation Yrotation
                  End Site
                  {
                    OFFSET 2.48547 -0.328903 0.83742
                  }
                }
              }
              JOINT lRing1
              {
                OFFSET 8.82822 0.546677 1.51678
                CHANNELS 3 Zrotation Xrotation Yrotation
                JOINT lRing2
                {
                  OFFSET 2.60934 -0.819778 -0.0198488
                  CHANNELS 3 Zrotation Xrotation Yrotation
                  End Site
                  {
                    OFFSET 2.33842 -0.294052 0.168128
                  }
                }
              }
              JOINT lPinky1
              {
                OFFSET 8.27202 -0.0477905 -0.4584
                CHANNELS 3 Zrotation Xrotation Yrotation
                JOINT lPinky2
                {
                  OFFSET 1.82734 -0.647385 -0.700984
                  CHANNELS 3 Zrotation Xrotation Yrotation
                  End Site
                  {
                    OFFSET 1.69225 -0.51767 -0.607171
                  }
                }
              }
            }
          }
        }
      }
    }
  }
  JOINT rButtock
  {
    OFFSET -8.77824 4.35084 1.2192
    CHANNELS 3 Zrotation Xrotation Yrotation
    JOINT rThigh
    {
      OFFSET 0 -1.70687 -2.19456
      CHANNELS 3 Zrotation Xrotation Yrotation
      JOINT rShin
      {
        OFFSET 0 -36.8199 0.73152
        CHANNELS 3 Zrotation Xrotation Yrotation
        JOINT rFoot
        {
          OFFSET 0.73152 -45.1104 -5.12064
          CHANNELS 3 Zrotation Xrotation Yrotation
          End Site
          {
            OFFSET -1.1221 -3.69964 12.103
          }
        }
      }
    }
  }
  JOINT lButtock
  {
    OFFSET 8.77824 4.35084 1.2192
    CHANNELS 3 Zrotation Xrotation Yrotation
    JOINT lThigh
    {
      OFFSET 0 -1.70687 -2.19456
      CHANNELS 3 Zrotation Xrotation Yrotation
      JOINT lShin
      {
        OFFSET 0 -36.8199 0.73152
        CHANNELS 3 Zrotation Xrotation Yrotation
        JOINT lFoot
        {
          OFFSET -0.73152 -45.1104 -5.12064
          CHANNELS 3 Zrotation Xrotation Yrotation
          End Site
          {
            OFFSET 1.1221 -3.69964 12.103
          }
        }
      }
    }
  }
}
MOTION
Frames:	11
Frame Time:	0.00833333
57.83	79.33	-23.75	2.59	-8	-2.84	-2.69	10.93	3.78	-1.93	-2.8	0.77	-2.4	0.51	0.52	0.83	0	2.05	0	0	0	0	0	0	8.48E-014	2.32E-014	-2.98E-013	64.92	39.51	17.43	-23.13	-17.57	46.93	-0.59	-21.34	-3.15	6.22E-010	-2.87E-009	7.74E-010	1.06E-009	-4.91E-009	1.35E-009	6.22E-010	-2.87E-009	7.74E-010	7.73	5.47	0.42	6.22E-010	-2.87E-009	7.74E-010	2.91	0.97	0.1	6.22E-010	-2.87E-009	7.74E-010	10.28	0.73	0.03	6.22E-010	-2.87E-009	7.74E-010	2.22	-0.73	-0.21	8.49E-014	2.32E-014	-2.98E-013	-86.11	5.95	11.57	9.53	-3.86	-16.92	0.43	-18.22	2.65	-9.30E-010	2.34E-009	2.91E-010	-1.60E-009	4.07E-009	4.89E-010	-9.30E-010	2.34E-009	2.91E-010	-7.73	5.47	-0.42	-9.30E-010	2.34E-009	2.91E-010	-2.91	0.97	-0.1	-9.30E-010	2.34E-009	2.91E-010	-10.28	0.73	-0.03	-9.30E-010	2.34E-009	2.91E-010	-2.22	-0.73	0.21	-2.03E-016	0	-3.88E-019	-0.34	-3.68	9.25	-1.16	60.4	1.27	1.63	28.56	-6.1	2.03E-016	0	3.88E-019	-7.92	-34.45	-3.6	0.56	46.38	-0.41	2.3	-6.93	8.53
58	79.51	-22.51	3.13	-8.03	-2.81	-3.31	10.95	3.57	-1.84	-2.83	0.69	-2.38	0.48	0.63	0.96	0	2.32	0	0	0	0	0	0	8.63E-014	-1.66E-014	-2.44E-013	65.78	39.54	17.03	-22.55	-16.62	45.24	-0.57	-20.89	-3.07	4.44E-010	-1.96E-009	4.91E-010	7.60E-010	-3.37E-009	8.56E-010	4.45E-010	-1.96E-009	4.91E-010	7.73	5.47	0.42	4.44E-010	-1.96E-009	4.91E-010	2.91	0.97	0.1	4.44E-010	-1.96E-009	4.91E-010	10.28	0.73	0.03	4.44E-010	-1.96E-009	4.91E-010	2.22	-0.73	-0.21	8.64E-014	-1.66E-014	-2.45E-013	-86.26	6.98	10.87	9.88	-4.06	-17.58	0.48	-19.19	2.8	-1.02E-009	1.86E-009	4.49E-011	-1.76E-009	3.23E-009	6.20E-011	-1.02E-009	1.86E-009	4.49E-011	-7.73	5.47	-0.42	-1.02E-009	1.86E-009	4.49E-011	-2.91	0.97	-0.1	-1.02E-009	1.86E-009	4.49E-011	-10.28	0.73	-0.03	-1.02E-009	1.86E-009	4.49E-011	-2.22	-0.73	0.21	-2.03E-016	0	-3.88E-019	-0.73	-5.98	9.08	-1.36	62.83	1.43	1.84	27.08	-7.35	2.03E-016	0	3.88E-019	-8.71	-33.45	-3.67	0.55	46.2	-0.42	2.45	-7.62	8.75
58.13	79.73	-21.23	3.42	-7.92	-2.83	-3.81	10.98	3.32	-1.75	-2.85	0.6	-2.39	0.45	0.74	1.12	0	2.59	0	0	0	0	0	0	8.61E-014	-5.61E-014	-1.92E-013	66.72	39.46	16.56	-21.92	-15.64	43.53	-0.54	-20.37	-2.99	2.50E-010	-1.04E-009	1.80E-010	4.29E-010	-1.80E-009	3.15E-010	2.50E-010	-1.04E-009	1.80E-010	7.73	5.47	0.42	2.50E-010	-1.04E-009	1.80E-010	2.91	0.97	0.1	2.50E-010	-1.04E-009	1.80E-010	10.28	0.73	0.03	2.50E-010	-1.04E-009	1.80E-010	2.22	-0.73	-0.21	8.62E-014	-5.61E-014	-1.92E-013	-86.34	8.03	10.12	10.25	-4.29	-18.28	0.52	-20.06	2.94	-1.09E-009	1.33E-009	-2.34E-010	-1.88E-009	2.31E-009	-4.21E-010	-1.09E-009	1.33E-009	-2.34E-010	-7.73	5.47	-0.42	-1.09E-009	1.33E-009	-2.34E-010	-2.91	0.97	-0.1	-1.09E-009	1.33E-009	-2.34E-010	-10.28	0.73	-0.03	-1.09E-009	1.33E-009	-2.34E-010	-2.22	-0.73	0.21	-2.03E-016	0	-3.88E-019	-1.04	-8.21	8.85	-1.56	64.98	1.61	1.94	25.2	-8.63	2.03E-016	0	3.88E-019	-9.4	-32.39	-3.76	0.54	45.92	-0.42	2.58	-8.26	8.91
58.14	79.91	-19.95	3.22	-7.67	-2.92	-4.11	11.02	3.08	-1.7	-2.88	0.53	-2.43	0.47	0.81	1.25	0	2.8	0	0	0	0	0	0	8.80E-014	-7.63E-014	-1.71E-013	67.7	39.3	15.92	-21.28	-14.71	41.88	-0.51	-19.95	-2.92	8.74E-011	-3.92E-010	-3.79E-011	1.53E-010	-6.84E-010	-6.41E-011	8.74E-011	-3.92E-010	-3.79E-011	7.73	5.47	0.42	8.73E-011	-3.92E-010	-3.79E-011	2.91	0.97	0.1	8.74E-011	-3.92E-010	-3.79E-011	10.28	0.73	0.03	8.73E-011	-3.92E-010	-3.79E-011	2.22	-0.73	-0.21	8.81E-014	-7.63E-014	-1.71E-013	-86.38	9.14	9.34	10.69	-4.57	-19.09	0.57	-20.86	3.07	-1.14E-009	9.54E-010	-4.45E-010	-1.96E-009	1.66E-009	-7.88E-010	-1.14E-009	9.54E-010	-4.45E-010	-7.73	5.47	-0.42	-1.14E-009	9.54E-010	-4.45E-010	-2.91	0.97	-0.1	-1.14E-009	9.54E-010	-4.45E-010	-10.28	0.73	-0.03	-1.14E-009	9.54E-010	-4.45E-010	-2.22	-0.73	0.21	-2.03E-016	0	-3.88E-019	-1.15	-10.38	8.65	-1.77	66.85	1.79	1.93	23.35	-9.86	2.03E-016	0	3.88E-019	-9.89	-31.26	-3.83	0.52	45.55	-0.43	2.69	-8.85	9.01
58.09	80.07	-18.72	2.76	-7.32	-2.91	-4.07	11.12	2.86	-1.69	-2.9	0.47	-2.53	0.58	0.84	1.31	0	2.91	0	0	0	0	0	0	9.91E-014	-6.44E-014	-2.09E-013	68.71	39.07	15.1	-20.65	-13.85	40.31	-0.5	-19.71	-2.89	-6.08E-011	-7.65E-011	-1.40E-010	-1.01E-010	-1.45E-010	-2.43E-010	-6.08E-011	-7.65E-011	-1.40E-010	7.73	5.47	0.42	-6.08E-011	-7.65E-011	-1.40E-010	2.91	0.97	0.1	-6.08E-011	-7.65E-011	-1.40E-010	10.28	0.73	0.03	-6.08E-011	-7.65E-011	-1.40E-010	2.22	-0.73	-0.21	9.91E-014	-6.44E-014	-2.10E-013	-86.38	10.29	8.51	11.19	-4.9	-20.04	0.61	-21.56	3.18	-1.20E-009	8.07E-010	-5.59E-010	-2.06E-009	1.41E-009	-9.87E-010	-1.20E-009	8.07E-010	-5.59E-010	-7.73	5.47	-0.42	-1.20E-009	8.07E-010	-5.59E-010	-2.91	0.97	-0.1	-1.20E-009	8.07E-010	-5.59E-010	-10.28	0.73	-0.03	-1.20E-009	8.07E-010	-5.59E-010	-2.22	-0.73	0.21	-2.03E-016	0	-3.88E-019	-0.94	-12.48	8.5	-1.96	68.42	1.98	1.85	21.52	-11.1	2.03E-016	0	3.88E-019	-10.07	-30.04	-3.89	0.5	45.07	-0.44	2.77	-9.38	9.02
58.07	80.42	-17.42	2.51	-7.14	-2.93	-3.78	11.25	2.63	-1.71	-2.92	0.41	-2.69	0.74	0.84	1.36	0	2.96	0	0	0	0	0	0	1.15E-013	-3.31E-014	-2.85E-013	69.76	38.74	14.15	-20.03	-13.05	38.77	-0.49	-19.56	-2.86	-2.11E-010	5.08E-011	-1.88E-010	-3.60E-010	7.33E-011	-3.27E-010	-2.11E-010	5.08E-011	-1.88E-010	7.73	5.47	0.42	-2.11E-010	5.08E-011	-1.88E-010	2.91	0.97	0.1	-2.11E-010	5.08E-011	-1.88E-010	10.28	0.73	0.03	-2.11E-010	5.08E-011	-1.88E-010	2.22	-0.73	-0.21	1.15E-013	-3.31E-014	-2.85E-013	-86.31	11.48	7.62	11.73	-5.27	-21.09	0.64	-22.16	3.28	-1.25E-009	7.75E-010	-6.31E-010	-2.15E-009	1.36E-009	-1.11E-009	-1.25E-009	7.75E-010	-6.31E-010	-7.73	5.47	-0.42	-1.25E-009	7.75E-010	-6.31E-010	-2.91	0.97	-0.1	-1.25E-009	7.75E-010	-6.31E-010	-10.28	0.73	-0.03	-1.25E-009	7.75E-010	-6.31E-010	-2.22	-0.73	0.21	-2.03E-016	0	-3.88E-019	-0.5	-14.51	8.35	-2.14	69.7	2.16	1.64	19.53	-12.39	2.03E-016	0	3.88E-019	-10.02	-28.74	-3.95	0.48	44.49	-0.45	2.82	-9.85	8.95
58.1	80.83	-16.09	2.56	-7.02	-3.01	-3.46	11.35	2.39	-1.74	-2.94	0.35	-2.84	0.91	0.83	1.4	0	2.99	0	0	0	0	0	0	1.24E-013	-1.90E-015	-3.50E-013	70.85	38.31	13.09	-19.4	-12.27	37.23	-0.48	-19.39	-2.84	-3.09E-010	3.44E-011	-1.87E-010	-5.30E-010	4.52E-011	-3.28E-010	-3.09E-010	3.44E-011	-1.87E-010	7.73	5.47	0.42	-3.09E-010	3.44E-011	-1.87E-010	2.91	0.97	0.1	-3.09E-010	3.44E-011	-1.87E-010	10.28	0.73	0.03	-3.09E-010	3.44E-011	-1.87E-010	2.22	-0.73	-0.21	1.24E-013	-1.90E-015	-3.51E-013	-86.2	12.73	6.72	12.3	-5.66	-22.2	0.68	-22.72	3.37	-1.25E-009	7.72E-010	-6.85E-010	-2.14E-009	1.35E-009	-1.21E-009	-1.25E-009	7.72E-010	-6.85E-010	-7.73	5.47	-0.42	-1.25E-009	7.72E-010	-6.85E-010	-2.91	0.97	-0.1	-1.25E-009	7.72E-010	-6.85E-010	-10.28	0.73	-0.03	-1.25E-009	7.72E-010	-6.85E-010	-2.22	-0.73	0.21	-2.03E-016	0	-3.88E-019	-0.05	-16.48	8.18	-2.3	70.73	2.34	1.33	17.57	-13.55	2.03E-016	0	3.88E-019	-9.93	-27.39	-4	0.46	43.84	-0.46	2.86	-10.3	8.84
58.15	81.1	-14.78	2.72	-6.82	-3.12	-3.32	11.38	2.16	-1.72	-2.94	0.3	-2.94	1.06	0.84	1.43	0	3.04	0	0	0	0	0	0	1.12E-013	9.54E-015	-3.61E-013	71.98	37.79	11.98	-18.74	-11.51	35.7	-0.47	-19.13	-2.79	-3.03E-010	-8.13E-011	-1.46E-010	-5.20E-010	-1.54E-010	-2.56E-010	-3.03E-010	-8.13E-011	-1.46E-010	7.73	5.47	0.42	-3.03E-010	-8.13E-011	-1.46E-010	2.91	0.97	0.1	-3.03E-010	-8.13E-011	-1.46E-010	10.28	0.73	0.03	-3.03E-010	-8.13E-011	-1.46E-010	2.22	-0.73	-0.21	1.12E-013	9.54E-015	-3.61E-013	-86.04	14.06	5.88	12.88	-6.08	-23.32	0.72	-23.32	3.47	-1.14E-009	7.11E-010	-7.47E-010	-1.95E-009	1.25E-009	-1.31E-009	-1.14E-009	7.11E-010	-7.47E-010	-7.73	5.47	-0.42	-1.14E-009	7.11E-010	-7.47E-010	-2.91	0.97	-0.1	-1.14E-009	7.11E-010	-7.47E-010	-10.28	0.73	-0.03	-1.14E-009	7.11E-010	-7.47E-010	-2.22	-0.73	0.21	-2.03E-016	0	-3.88E-019	0.19	-18.41	8.01	-2.44	71.54	2.49	0.98	15.83	-14.4	2.03E-016	0	3.88E-019	-10.01	-26.04	-4.06	0.43	43.17	-0.47	2.89	-10.74	8.74
58.22	81.27	-13.52	2.91	-6.62	-3.05	-3.5	11.29	1.95	-1.65	-2.92	0.24	-2.94	1.2	0.88	1.4	0	3.09	0	0	0	0	0	0	6.16E-014	-1.47E-014	-2.78E-013	73.19	37.15	10.81	-18.05	-10.74	34.14	-0.45	-18.74	-2.73	-1.08E-010	-3.88E-010	-1.75E-011	-1.83E-010	-6.80E-010	-3.22E-011	-1.08E-010	-3.88E-010	-1.75E-011	7.73	5.47	0.42	-1.08E-010	-3.88E-010	-1.74E-011	2.91	0.97	0.1	-1.08E-010	-3.88E-010	-1.74E-011	10.28	0.73	0.03	-1.08E-010	-3.88E-010	-1.74E-011	2.22	-0.73	-0.21	6.16E-014	-1.47E-014	-2.78E-013	-85.83	15.51	5.1	13.44	-6.51	-24.44	0.76	-23.96	3.58	-8.20E-010	5.67E-010	-8.58E-010	-1.40E-009	1.00E-009	-1.50E-009	-8.20E-010	5.67E-010	-8.58E-010	-7.73	5.47	-0.42	-8.20E-010	5.67E-010	-8.58E-010	-2.91	0.97	-0.1	-8.20E-010	5.67E-010	-8.58E-010	-10.28	0.73	-0.03	-8.20E-010	5.67E-010	-8.58E-010	-2.22	-0.73	0.21	-2.03E-016	0	-3.88E-019	0.08	-20.3	7.8	-2.55	72.16	2.62	0.63	14.42	-14.86	2.03E-016	0	3.88E-019	-10.35	-24.64	-4.1	0.41	42.46	-0.49	2.93	-11.2	8.62
58.33	81.45	-12.26	3.31	-6.28	-2.88	-3.86	11.12	1.75	-1.55	-2.88	0.18	-2.87	1.35	0.93	1.33	0	3.15	0	0	0	0	0	0	-1.61E-014	-6.07E-014	-1.35E-013	74.44	36.39	9.57	-17.34	-10	32.55	-0.43	-18.26	-2.66	2.26E-010	-8.74E-010	1.86E-010	3.91E-010	-1.52E-009	3.23E-010	2.26E-010	-8.74E-010	1.86E-010	7.73	5.47	0.42	2.26E-010	-8.74E-010	1.86E-010	2.91	0.97	0.1	2.26E-010	-8.74E-010	1.86E-010	10.28	0.73	0.03	2.26E-010	-8.74E-010	1.86E-010	2.22	-0.73	-0.21	-1.62E-014	-6.07E-014	-1.35E-013	-85.58	17.06	4.36	14	-6.95	-25.56	0.81	-24.61	3.69	-3.50E-010	3.86E-010	-9.92E-010	-5.86E-010	6.87E-010	-1.72E-009	-3.50E-010	3.86E-010	-9.92E-010	-7.73	5.47	-0.42	-3.50E-010	3.86E-010	-9.92E-010	-2.91	0.97	-0.1	-3.50E-010	3.86E-010	-9.92E-010	-10.28	0.73	-0.03	-3.50E-010	3.86E-010	-9.92E-010	-2.22	-0.73	0.21	-2.03E-016	0	-3.88E-019	-0.23	-22.16	7.57	-2.62	72.56	2.72	0.3	13.2	-15.04	2.03E-016	0	3.88E-019	-10.84	-23.21	-4.12	0.38	41.69	-0.5	2.95	-11.66	8.47
58.39	81.67	-10.94	3.45	-5.84	-2.89	-4.22	10.93	1.52	-1.43	-2.85	0.12	-2.83	1.47	0.97	1.32	0	3.21	0	0	0	0	0	0	-8.76E-014	-1.03E-013	7.92E-015	75.66	35.56	8.3	-16.64	-9.3	31.01	-0.4	-17.75	-2.58	5.45E-010	-1.34E-009	3.69E-010	9.39E-010	-2.32E-009	6.44E-010	5.45E-010	-1.34E-009	3.69E-010	7.73	5.47	0.42	5.45E-010	-1.34E-009	3.69E-010	2.91	0.97	0.1	5.45E-010	-1.34E-009	3.69E-010	10.28	0.73	0.03	5.45E-010	-1.34E-009	3.69E-010	2.22	-0.73	-0.21	-8.77E-014	-1.03E-013	7.71E-015	-85.27	18.63	3.64	14.58	-7.42	-26.75	0.85	-25.28	3.81	9.27E-011	1.94E-010	-1.08E-009	1.78E-010	3.53E-010	-1.86E-009	9.27E-011	1.94E-010	-1.08E-009	-7.73	5.47	-0.42	9.27E-011	1.94E-010	-1.08E-009	-2.91	0.97	-0.1	9.27E-011	1.94E-010	-1.08E-009	-10.28	0.73	-0.03	9.27E-011	1.94E-010	-1.08E-009	-2.22	-0.73	0.21	-2.03E-016	0	-3.88E-019	-0.57	-23.94	7.33	-2.64	72.72	2.77	-0.02	12.04	-15.08	2.03E-016	0	3.88E-019	-11.33	-21.79	-4.18	0.35	40.91	-0.53	2.97	-12.1	8.35
